<?xml version="1.0" standalone="no"?>
<!DOCTYPE svg PUBLIC "-//W3C//DTD SVG 20010904//EN"
 "http://www.w3.org/TR/2001/REC-SVG-20010904/DTD/svg10.dtd">
<svg version="1.0" xmlns="http://www.w3.org/2000/svg"
 width="1024.000000pt" height="1242.000000pt" viewBox="0 0 1024.000000 1242.000000"
 preserveAspectRatio="xMidYMid meet">
<metadata>
Created by potrace 1.16, written by Peter Selinger 2001-2019
</metadata>
<g transform="translate(0.000000,1242.000000) scale(0.100000,-0.100000)"
fill="#000000" stroke="none">
<path d="M0 10986 c0 -1350 1 -1436 17 -1445 17 -9 17 -10 0 -28 -16 -18 -17
-115 -16 -1589 0 -863 3 -1562 6 -1554 3 8 12 23 20 32 10 11 14 31 11 56 -3
35 0 41 24 52 26 11 31 9 66 -25 20 -20 55 -47 76 -59 59 -33 78 -63 66 -105
-5 -18 -16 -38 -25 -45 -22 -16 -29 -95 -10 -102 21 -9 19 -44 -3 -44 -17 0
-72 54 -72 71 0 17 -29 9 -44 -12 -19 -28 -42 -19 -51 20 -5 26 -11 31 -36 31
l-29 0 0 -863 c0 -773 2 -867 16 -896 16 -31 17 -32 36 -14 12 10 27 34 35 53
l15 34 29 -34 c26 -32 27 -36 11 -48 -9 -7 -28 -12 -43 -10 -19 3 -25 -1 -27
-16 0 -11 -8 -26 -18 -33 -15 -11 -15 -34 3 -97 4 -16 1 -18 -26 -14 l-31 5 0
-324 c0 -209 4 -323 10 -323 6 0 10 -5 10 -11 0 -5 -4 -7 -10 -4 -6 4 -10 -20
-10 -63 0 -61 2 -70 20 -75 14 -4 20 -14 20 -35 0 -16 7 -35 15 -42 8 -6 13
-17 12 -23 -1 -7 10 -13 25 -15 18 -2 30 -12 38 -33 14 -33 8 -48 -13 -31 -10
9 -17 6 -30 -8 -31 -36 -19 -54 15 -23 11 10 18 13 16 8 -6 -21 36 -74 56 -72
19 2 21 -3 18 -51 -1 -33 4 -64 14 -83 8 -17 13 -37 10 -45 -3 -8 0 -14 7 -13
39 5 57 -2 57 -22 0 -17 -5 -20 -25 -17 -20 4 -24 2 -21 -16 1 -12 11 -25 22
-31 10 -5 21 -19 22 -30 2 -11 9 -23 14 -26 7 -4 6 -13 -1 -27 -6 -11 -11 -30
-11 -42 0 -12 -9 -24 -21 -28 -11 -4 -26 -19 -32 -32 -14 -28 -33 -32 -62 -13
-27 18 -32 17 -51 -13 -13 -19 -14 -28 -5 -37 6 -6 11 -21 11 -34 0 -13 5 -23
10 -23 6 0 10 -7 10 -15 0 -9 11 -20 24 -25 18 -7 23 -14 19 -30 -3 -11 -9
-23 -14 -26 -14 -8 -50 6 -43 17 4 7 -7 8 -29 4 -50 -10 -77 1 -77 30 0 13 5
27 10 30 13 8 3 25 -16 25 -10 0 -14 -13 -14 -50 0 -42 3 -50 18 -50 22 0 52
-30 52 -53 0 -24 -30 -48 -51 -42 -17 6 -19 1 -19 -48 0 -30 7 -69 17 -87 14
-28 18 -31 27 -17 7 9 31 17 56 19 l45 3 0 -35 c0 -32 -3 -35 -37 -41 -36 -5
-67 -25 -95 -58 -19 -21 -19 -762 0 -792 9 -17 9 -23 0 -26 -7 -3 -13 -14 -13
-26 l0 -21 20 21 c16 18 31 21 82 21 83 0 118 14 118 46 0 32 17 42 25 16 4
-11 15 -20 26 -20 28 0 61 -19 54 -31 -4 -5 5 -13 20 -19 33 -13 39 -30 21
-64 -8 -16 -12 -35 -9 -43 4 -9 -5 -18 -26 -26 -17 -6 -34 -19 -37 -29 -10
-32 -34 -49 -53 -39 -10 6 -52 8 -93 5 -64 -3 -80 -1 -99 15 -24 19 -24 19 -5
40 17 18 18 24 6 45 -7 13 -21 27 -31 29 -18 5 -19 -14 -19 -648 l0 -652 135
-2 c89 -1 135 2 135 8 0 6 7 11 15 11 8 0 15 -4 15 -10 0 -17 67 -12 74 6 3 8
10 12 16 9 6 -4 8 -10 5 -15 -4 -6 187 -10 466 -10 428 0 473 2 484 17 13 17
51 11 40 -7 -10 -16 667 -14 683 2 9 9 15 9 24 0 9 -9 150 -12 575 -12 478 0
562 2 557 14 -3 8 -1 17 5 21 10 5 15 -7 12 -27 0 -5 8 -8 19 -8 11 0 19 4 18
9 -2 5 2 9 7 9 6 0 9 -4 8 -9 -2 -5 795 -9 1895 -9 1043 0 1891 4 1884 8 -10
7 -8 12 6 25 17 15 21 16 31 3 7 -8 10 -20 6 -26 -4 -7 153 -10 506 -10 459 0
514 2 530 16 19 17 55 12 44 -6 -4 -7 205 -10 630 -10 572 0 638 2 653 16 14
15 17 15 27 0 10 -13 32 -16 113 -16 56 0 104 4 107 10 8 13 45 13 45 0 0 -5
14 -10 30 -10 17 0 30 5 30 10 0 15 38 50 54 50 21 0 30 -20 17 -33 -6 -6 -11
-15 -11 -19 0 -4 79 -8 175 -7 l175 0 0 584 c0 487 -2 584 -14 579 -7 -3 -20
6 -30 20 -18 28 -21 40 -7 31 5 -3 12 -1 16 5 10 15 -21 12 -34 -4 -10 -11 -8
-17 6 -25 10 -6 13 -11 6 -11 -7 0 -10 -6 -7 -14 6 -15 -42 -36 -82 -36 -13 0
-26 -4 -29 -10 -3 -5 -15 -10 -26 -10 -14 0 -19 7 -19 25 0 14 -5 25 -10 25
-6 0 -18 16 -27 35 -12 24 -23 35 -39 35 -26 0 -34 17 -34 70 0 21 -5 42 -10
45 -21 13 9 32 41 27 30 -4 31 -4 24 27 -8 39 2 39 44 1 25 -24 32 -36 27 -54
-3 -13 -3 -26 1 -29 10 -10 32 13 27 27 -3 8 4 16 16 19 17 4 20 10 15 27 -7
21 -5 22 34 15 37 -6 43 -4 67 24 14 17 30 29 35 25 5 -3 9 171 9 430 -1 240
-4 436 -8 436 -5 0 -13 -5 -20 -12 -6 -6 -15 -9 -19 -5 -4 4 -1 13 5 19 7 7
12 22 12 35 0 14 6 23 15 23 12 0 15 16 15 82 0 45 -3 78 -6 75 -10 -10 -44
12 -44 28 0 8 9 19 19 25 16 8 20 6 24 -8 3 -9 5 34 6 96 0 61 -3 112 -7 112
-5 0 -18 -11 -30 -24 -18 -21 -27 -24 -59 -19 -21 3 -42 9 -48 13 -5 3 -17 6
-25 5 -8 -1 -23 -3 -32 -3 -23 -2 -24 -49 -3 -79 20 -28 -2 -45 -22 -17 -8 10
-27 19 -45 20 -17 1 -34 8 -39 15 -10 17 8 50 32 56 10 3 19 9 19 13 0 5 9 12
20 15 11 3 20 10 20 15 0 12 -38 6 -84 -14 -24 -10 -43 -13 -50 -7 -6 5 -27
11 -46 13 -33 3 -35 5 -35 38 0 42 24 51 54 21 11 -11 31 -27 45 -36 24 -16
26 -16 27 -1 1 9 2 20 3 26 2 19 47 42 70 36 35 -9 50 16 32 55 -15 34 44 123
89 131 14 2 21 12 22 33 3 30 3 30 -8 5 l-10 -25 -18 24 c-12 15 -23 21 -31
16 -10 -6 -12 0 -8 24 3 18 1 34 -4 37 -11 7 -10 34 1 34 18 0 91 -54 91 -67
0 -7 5 -13 10 -13 6 0 10 20 10 45 0 32 5 47 15 52 45 17 45 14 45 886 0 724
-2 826 -15 831 -19 7 -19 55 0 62 13 5 15 83 15 618 l0 611 -49 0 c-27 0 -53
-3 -57 -7 -9 -10 -56 -10 -79 -2 -37 15 -58 101 -34 147 20 38 52 67 74 67 36
0 82 29 89 54 3 14 16 26 31 30 l25 6 0 1479 c0 1470 0 1479 -20 1484 -35 9
-24 54 13 48 4 0 7 647 7 1439 l0 1440 -1568 0 c-1551 0 -1569 0 -1568 -20 1
-10 -3 -19 -9 -19 -5 0 -10 9 -9 19 1 20 -36 20 -3543 20 l-3543 0 0 -1434z
m5718 520 c12 -4 22 -13 22 -21 0 -14 34 -28 67 -25 12 0 26 -7 32 -17 6 -10
11 -14 11 -9 0 14 40 -31 40 -44 0 -7 -8 -9 -20 -5 -14 5 -20 2 -20 -9 0 -9 4
-16 9 -16 16 0 18 -44 3 -71 -15 -27 -14 -32 12 -78 11 -17 11 -31 4 -52 -8
-22 -7 -34 3 -46 8 -9 14 -26 14 -37 0 -15 6 -21 23 -20 12 0 22 -3 22 -8 0
-4 -6 -8 -13 -8 -20 0 -38 -45 -24 -59 8 -8 14 -7 24 1 10 8 17 8 24 1 8 -8 5
-14 -9 -22 -10 -6 -22 -7 -26 -4 -3 3 -6 -3 -6 -15 0 -11 -7 -25 -15 -29 -10
-6 -15 -32 -18 -92 -4 -74 -7 -85 -26 -95 l-22 -12 21 -19 c26 -24 27 -92 2
-144 -18 -37 -18 -39 -1 -62 25 -32 24 -46 -6 -65 -13 -9 -27 -25 -31 -36 -5
-16 -12 -19 -35 -14 -25 5 -29 2 -29 -15 0 -12 18 -40 41 -62 46 -46 63 -73
54 -87 -12 -20 -27 -9 -23 15 4 19 1 25 -13 25 -15 0 -17 -5 -13 -30 6 -26 3
-30 -22 -35 -16 -4 -38 -10 -50 -15 -15 -6 -24 -3 -32 9 -9 14 -11 13 -11 -6
-1 -19 -8 -23 -51 -29 -27 -4 -48 -11 -47 -16 1 -5 -13 -15 -30 -23 -18 -8
-33 -10 -33 -5 0 6 -4 10 -10 10 -5 0 -10 -9 -10 -20 0 -29 -56 -28 -65 1 -4
11 -12 18 -18 16 -7 -2 -20 0 -29 4 -12 7 -20 4 -26 -7 -9 -16 -157 -48 -174
-38 -4 3 -15 -4 -25 -16 -10 -11 -27 -20 -38 -19 -19 0 -18 1 3 9 24 10 26 17
12 40 -7 12 -13 9 -33 -14 l-24 -28 -42 23 c-24 14 -41 31 -41 42 0 10 -7 20
-16 24 -11 4 -12 8 -4 13 7 5 -2 18 -27 37 -29 23 -48 30 -82 30 -48 0 -60 12
-53 49 6 33 -11 51 -54 52 -30 1 -43 -6 -76 -39 -43 -43 -51 -42 -62 5 -7 26
-6 28 9 16 12 -10 19 -10 28 -1 8 8 7 18 -6 40 -23 38 -22 62 3 68 11 3 20 13
20 23 0 10 7 20 15 24 21 8 19 37 -4 43 -10 2 -23 15 -29 28 -13 29 2 45 45
48 20 2 28 8 28 22 0 15 -6 19 -22 18 -13 -2 -23 1 -23 6 0 10 -36 25 -60 26
-18 0 -26 53 -10 69 8 8 17 3 35 -19 19 -25 27 -28 41 -19 26 16 28 31 4 39
-16 5 -19 12 -14 28 4 12 11 23 15 25 5 2 4 13 -2 24 -10 19 -10 19 16 2 25
-16 27 -16 48 7 12 13 22 33 22 44 0 27 29 30 53 5 11 -12 23 -17 26 -12 8 13
-3 42 -15 42 -5 0 -9 14 -9 30 0 24 4 30 23 30 17 0 25 9 33 35 6 19 7 35 3
35 -5 0 -9 7 -9 16 0 12 6 15 21 11 28 -7 34 15 15 54 -19 38 -13 51 20 43 19
-5 26 -1 32 16 6 17 3 28 -15 46 -24 24 -28 40 -17 68 8 20 48 21 64 1 9 -11
16 -12 32 -2 16 9 22 9 25 0 7 -20 23 -15 23 6 0 23 28 53 44 48 6 -2 11 -11
11 -20 0 -21 11 -31 25 -22 7 4 8 11 1 19 -7 8 6 27 41 64 46 49 51 51 63 35
7 -10 17 -15 21 -10 4 4 2 7 -6 7 -10 0 -10 3 0 15 7 9 13 25 14 38 1 16 7 21
21 19 47 -7 74 0 91 23 11 14 16 16 28 6 8 -7 13 -18 10 -25 -4 -10 2 -12 20
-9 16 3 26 1 26 -6 0 -7 6 -8 18 -2 68 34 90 40 102 25 19 -22 39 -17 46 14
10 48 15 57 22 46 4 -6 17 -14 30 -18z m-1095 -1278 c4 -12 4 -24 1 -27 -4 -3
-9 0 -11 7 -7 19 -23 4 -23 -21 0 -15 -6 -23 -19 -24 -11 -1 -36 -12 -58 -25
-37 -23 -86 -30 -109 -15 -7 4 -14 -2 -17 -14 -7 -27 -42 -22 -42 6 0 14 8 21
25 23 13 2 30 11 36 20 10 14 14 14 28 3 14 -12 16 -11 16 8 0 12 -6 21 -15
21 -33 0 -12 27 40 50 30 13 57 32 60 41 5 16 10 15 43 -7 20 -14 40 -35 45
-46z m-3718 -888 c4 -6 15 -6 31 0 42 16 80 -14 94 -74 10 -46 -6 -51 -87 -27
-68 21 -123 55 -123 76 0 27 71 48 85 25z m2468 -2411 c9 -17 17 -37 17 -44 0
-7 7 -15 15 -19 13 -4 15 -29 5 -56 -1 -3 -2 -12 -1 -21 2 -18 -14 -34 -46
-43 -16 -5 -26 0 -43 25 -20 27 -21 35 -11 67 7 21 14 44 15 52 7 36 19 70 25
70 3 0 14 -14 24 -31z m1382 -454 c22 -8 46 -15 53 -15 21 0 73 -43 88 -72 33
-63 2 -160 -64 -198 -32 -19 -35 -19 -62 -3 -27 15 -30 15 -54 0 -34 -22 -35
-22 -80 18 -21 19 -42 35 -47 35 -12 0 -11 37 1 45 15 9 12 47 -5 69 -8 11
-15 29 -15 39 0 17 5 19 40 13 40 -6 40 -6 62 39 24 50 26 50 83 30z m961 -8
c3 -3 7 -31 9 -63 6 -79 7 -84 17 -84 4 0 8 -10 8 -23 0 -30 -112 -150 -136
-145 -10 2 -38 29 -62 60 -57 76 -65 133 -24 177 15 17 37 44 50 60 22 29 27
30 78 27 31 -2 58 -6 60 -9z m1372 -629 c-7 -20 18 -38 52 -38 23 0 33 6 42
25 11 23 13 24 34 10 12 -8 37 -16 54 -17 17 -1 34 -6 37 -10 5 -10 -34 -95
-48 -104 -15 -9 -10 -36 9 -50 15 -12 13 -13 -20 -14 -20 0 -40 5 -43 10 -3 6
-13 10 -21 10 -9 0 -22 7 -31 16 -9 8 -25 14 -37 13 -11 0 -29 -1 -38 0 -20 1
-52 56 -45 76 3 7 1 17 -5 23 -8 8 -5 9 11 5 17 -4 22 0 27 26 4 17 11 31 16
31 5 0 8 -6 6 -12z m-3894 -61 c-2 -42 -24 -66 -64 -67 -17 0 -32 -11 -48 -35
-21 -29 -27 -32 -42 -22 -11 6 -21 21 -25 34 -3 13 -13 23 -23 23 -16 1 -16 1
1 14 27 21 22 37 -9 26 -33 -13 -34 -13 -34 5 0 17 36 39 44 27 8 -13 105 3
122 20 9 9 30 15 47 14 30 -2 32 -4 31 -39z m2930 -391 c-11 -61 -25 -105 -34
-111 -13 -8 -13 -55 0 -55 5 0 7 -7 4 -15 -4 -8 -10 -12 -15 -9 -16 9 -49 -16
-63 -49 -11 -27 -19 -33 -47 -35 -20 -1 -29 1 -22 6 16 10 19 50 5 83 -6 15
-7 31 -1 40 14 23 11 29 -20 40 -23 8 -51 43 -51 65 0 3 19 4 43 2 39 -3 42
-1 42 22 0 21 6 26 37 31 42 7 64 22 74 51 6 20 7 19 30 -7 17 -20 22 -35 18
-59z m-1875 -86 c2 -82 1 -84 -75 -137 -24 -17 -34 -19 -51 -9 -11 6 -18 17
-16 24 3 7 -2 24 -11 37 -20 31 -20 54 -1 61 8 4 15 13 15 21 0 8 12 24 26 36
22 17 25 25 20 58 -5 32 -2 40 16 53 21 15 23 14 48 -27 21 -34 27 -56 29
-117z m1153 129 c11 -14 18 -38 17 -59 -1 -19 -1 -52 0 -74 l1 -39 39 7 c22 3
42 2 46 -4 3 -5 19 -7 35 -3 24 4 30 2 30 -11 0 -22 -24 -30 -48 -17 -16 9
-25 4 -57 -30 -33 -36 -41 -40 -69 -35 -17 4 -39 8 -48 9 -10 1 -18 5 -18 9 0
4 -18 13 -40 19 -33 10 -43 9 -65 -5 -26 -17 -27 -17 -61 18 -19 19 -34 41
-34 48 0 18 65 52 85 45 9 -4 20 1 27 13 14 22 34 28 22 8 -4 -7 2 -5 12 5 15
14 16 19 6 26 -10 6 -9 10 7 14 23 6 28 36 10 54 -19 19 1 33 43 29 28 -2 47
-11 60 -27z m-4482 -7 c0 -22 7 -30 30 -39 26 -10 30 -17 30 -47 0 -32 -3 -36
-37 -45 -54 -15 -58 -15 -98 23 l-35 34 30 25 c16 14 30 34 30 45 0 24 8 32
32 32 13 0 18 -8 18 -28z m4297 -512 c4 -14 11 -19 24 -15 16 6 17 0 12 -72
-3 -43 -5 -94 -4 -114 1 -28 -7 -46 -34 -79 -19 -23 -35 -50 -35 -60 0 -10 -6
-23 -13 -29 -11 -8 -17 -5 -26 16 -12 27 -13 27 -27 8 -16 -21 -34 -79 -34
-110 0 -11 -7 -29 -15 -39 -13 -17 -15 -17 -20 -3 -4 8 0 28 9 45 8 16 12 39
9 50 -3 12 2 33 11 47 31 48 15 100 -36 118 -20 7 -26 77 -8 77 21 0 60 49 60
76 0 17 13 40 38 65 42 44 81 52 89 19z m-3837 -297 c0 -17 3 -38 6 -47 4 -11
-2 -17 -21 -22 -24 -6 -26 -10 -21 -39 6 -32 -6 -47 -39 -50 -5 0 -16 -4 -23
-9 -7 -4 -23 -1 -36 7 -29 20 -42 103 -20 128 8 8 14 28 14 42 0 34 8 34 48
-2 l32 -30 6 27 c11 53 12 54 34 40 13 -9 20 -24 20 -45z m7737 -1 c17 -24 16
-68 -3 -97 -10 -15 -14 -37 -12 -55 3 -20 0 -30 -9 -30 -7 0 -13 5 -13 10 0 6
-11 10 -24 10 -30 0 -39 22 -23 57 9 21 9 27 -1 31 -17 5 -15 59 3 66 8 3 15
13 15 22 0 13 6 15 27 9 15 -3 33 -14 40 -23z m-681 -38 c-8 -21 16 -55 33
-45 7 4 32 4 55 -2 32 -7 48 -18 61 -39 21 -37 36 -26 44 34 5 34 10 43 26 43
14 0 20 -7 20 -24 0 -15 8 -27 20 -32 17 -6 17 -8 3 -8 -10 -1 -18 -7 -18 -15
0 -19 -40 -67 -50 -61 -15 9 -51 -37 -44 -57 3 -12 -4 -30 -20 -49 -29 -34
-32 -45 -14 -51 17 -6 -20 -53 -59 -74 -25 -14 -34 -15 -46 -6 -8 7 -41 16
-72 20 l-58 7 -15 52 c-8 30 -21 55 -31 58 -24 7 -23 102 3 120 10 8 15 18 12
24 -4 6 2 30 14 55 17 37 24 45 47 44 16 0 39 5 53 10 35 15 43 14 36 -4z
m-6455 -171 c4 -83 9 -107 29 -128 18 -19 20 -27 11 -44 -14 -26 -22 -26 -44
-1 -26 31 -76 26 -117 -10 -40 -36 -42 -36 -66 -9 -15 17 -19 36 -19 98 0 47
5 81 13 89 6 7 12 9 12 3 0 -13 63 -33 83 -25 8 3 14 13 12 22 -2 14 6 18 41
20 36 2 44 -1 45 -15z m3634 -1333 c-3 -5 -13 -10 -22 -10 -13 0 -15 -10 -9
-71 7 -82 10 -89 38 -89 17 0 18 -2 8 -15 -7 -9 -10 -19 -5 -23 9 -9 65 57 65
76 0 12 -3 12 -15 2 -19 -16 -39 -1 -29 23 4 12 11 14 30 7 17 -7 31 -6 43 2
10 6 27 8 37 4 18 -7 18 -8 -3 -20 -22 -11 -22 -13 -7 -34 13 -18 22 -22 44
-17 22 5 31 1 44 -17 9 -12 16 -30 16 -40 0 -10 16 -32 35 -49 35 -32 48 -80
25 -94 -17 -10 -12 -65 6 -65 8 0 13 -4 10 -9 -3 -5 0 -21 8 -36 20 -39 4 -70
-51 -96 -44 -21 -44 -22 -38 -60 4 -22 3 -39 -2 -39 -23 1 -52 13 -47 21 3 5
0 17 -5 26 -9 15 -10 14 -11 -10 0 -15 -7 -30 -15 -33 -21 -9 -19 -22 5 -26
27 -4 27 -22 0 -26 -12 -2 -24 -10 -27 -18 -8 -21 -39 23 -45 66 -3 19 -13 60
-22 90 -9 30 -19 74 -23 98 -3 23 -10 45 -14 48 -5 3 -9 29 -9 57 l0 52 20
-33 c18 -29 25 -33 48 -27 33 8 46 27 27 38 -8 4 -15 19 -15 32 0 15 -6 25
-14 25 -8 0 -22 10 -30 22 -12 17 -18 19 -30 9 -9 -7 -14 -21 -13 -31 1 -10
-2 -20 -8 -22 -5 -2 -11 11 -13 27 -2 17 -8 34 -13 40 -5 5 -9 32 -9 61 0 37
-4 54 -15 58 -11 4 -15 20 -15 58 0 45 3 55 23 64 29 15 50 17 42 4z m-1199
-115 c-5 -20 -1 -28 23 -43 17 -10 44 -17 61 -16 l30 2 -20 -28 c-11 -15 -20
-35 -20 -43 0 -8 -13 -17 -29 -20 -24 -5 -28 -10 -23 -32 3 -17 9 -24 19 -21
8 3 18 -4 25 -19 6 -14 18 -25 25 -25 8 0 11 -4 8 -10 -3 -5 -2 -10 4 -10 6 0
15 9 21 20 6 11 17 20 25 20 8 0 15 5 15 10 0 6 -7 10 -15 10 -20 0 -19 17 3
29 14 8 15 13 5 30 -19 30 -16 40 14 52 19 7 23 13 15 18 -13 8 -6 41 8 41 4
0 17 9 30 20 27 23 31 24 53 8 14 -11 15 -21 6 -73 -21 -128 -52 -261 -62
-271 -4 -4 -7 -23 -7 -42 0 -30 -16 -91 -42 -160 -5 -13 -17 -26 -28 -29 -11
-3 -20 -9 -20 -14 0 -5 -7 -9 -15 -9 -8 0 -15 5 -15 10 0 6 -4 10 -10 10 -5 0
-10 -12 -10 -26 0 -36 -34 -29 -38 9 -3 22 1 27 18 27 20 0 22 3 15 38 -4 20
-8 47 -10 59 -2 23 -27 53 -44 53 -6 0 -11 7 -11 15 0 8 -5 15 -11 15 -6 0
-17 7 -26 16 -12 11 -13 18 -4 27 6 6 11 18 11 27 0 9 9 25 20 35 21 19 18 38
-5 29 -10 -4 -18 4 -25 22 -9 24 -6 37 20 87 31 60 33 87 6 87 -9 0 -16 14
-19 38 -5 43 -2 52 20 52 11 0 14 -6 9 -25z m-3385 -438 c17 -12 59 -97 59
-117 0 -6 -4 -8 -10 -5 -5 3 -20 -1 -32 -9 -12 -9 -36 -16 -53 -16 -16 0 -47
-5 -68 -11 -20 -5 -42 -7 -47 -4 -13 8 -1 35 16 35 17 0 18 22 3 37 -16 16 -1
36 22 30 13 -4 25 5 39 28 18 30 33 42 50 44 3 0 12 -5 21 -12z m116 -2239 c3
7 21 12 43 12 46 0 59 -15 53 -58 -4 -26 -13 -37 -44 -52 -39 -18 -40 -18 -59
2 -17 19 -21 19 -49 5 -26 -13 -32 -13 -42 -1 -9 11 -8 15 5 20 9 3 16 12 16
19 0 7 9 24 21 39 18 23 23 25 37 14 12 -10 16 -10 19 0z"/>
</g>
</svg>
